<svg width="56" height="48" viewBox="0 0 56 48" fill="none" xmlns="http://www.w3.org/2000/svg">
<path d="M26.8875 17.6834C24.8405 18.296 17.788 20.3729 6.08124 32.2515V0H0V48H6.08124V40.6861C7.30646 39.2367 10.7281 35.3071 14.9566 31.5493C18.6322 28.277 22.9205 25.1468 26.8875 23.8917V17.6834Z" fill="white"/>
<path d="M49.8106 20.7017C46.3143 17.9823 41.3088 16.6675 34.5178 16.6675C34.5104 16.6675 34.5104 16.6675 34.5029 16.6675C32.2915 16.6675 29.7888 16.8169 26.8901 17.691V23.9067V24.2877V47.9702H29.9681C36.2884 47.9702 42.2576 47.9702 46.8073 46.3266C52.4329 44.2946 55.3091 39.969 55.3764 33.4544C55.339 27.8289 53.4713 23.5406 49.8106 20.7017ZM49.2951 33.4021C49.2428 38.288 47.0763 39.7523 44.7379 40.5965C41.8094 41.6574 37.5883 41.8367 32.9564 41.874V22.8085V22.4275C33.4645 22.3827 33.9799 22.3602 34.5029 22.3602C39.8221 22.3602 43.7144 23.2866 46.0677 25.117C46.8671 25.7371 49.2876 27.6197 49.2876 33.2079C49.3026 33.2826 49.2951 33.3423 49.2951 33.4021Z" fill="white"/>
<path d="M32.9641 0H26.8828V15.5617C28.7655 15.0911 30.7826 14.8221 32.9641 14.7325V0Z" fill="white"/>
</svg>
