<svg width="151" height="36" viewBox="0 0 151 36" fill="none" xmlns="http://www.w3.org/2000/svg">
<path d="M20.149 13.2626C18.615 13.722 13.33 15.2797 4.55718 24.1886V0H0V36H4.55718V30.5146C5.47534 29.4275 8.03945 26.4803 11.2082 23.6619C13.9627 21.2078 17.1762 18.8601 20.149 17.9188V13.2626Z" fill="#FFC421"/>
<path d="M37.3247 15.5264C34.7046 13.4869 30.9536 12.5007 25.8645 12.5007C25.8589 12.5007 25.8589 12.5007 25.8533 12.5007C24.1962 12.5007 22.3207 12.6128 20.1484 13.2684V17.9301V18.2159V35.9778H22.455C27.1914 35.9778 31.6646 35.9778 35.0741 34.7451C39.2897 33.221 41.4452 29.9768 41.4955 25.0909C41.4675 20.8718 40.0679 17.6556 37.3247 15.5264ZM36.9384 25.0517C36.8992 28.7161 35.2756 29.8144 33.5233 30.4475C31.3287 31.2431 28.1655 31.3776 24.6944 31.4056V17.1065V16.8207C25.0751 16.7871 25.4614 16.7703 25.8533 16.7703C29.8395 16.7703 32.7563 17.4651 34.5198 18.8379C35.1188 19.3029 36.9328 20.7149 36.9328 24.906C36.944 24.9621 36.9384 25.0069 36.9384 25.0517Z" fill="#090304"/>
<path d="M24.7007 0.000976562H20.1436V11.6723C21.5544 11.3193 23.066 11.1176 24.7007 11.0503V0.000976562Z" fill="#090304"/>
<path d="M56.1319 15.6892H54.402V10.6464H47.7454V15.6892H46.0322V4.16919H47.7454V9.08872H54.402V4.16919H56.1319V15.6892Z" fill="#090304"/>
<path d="M66.7925 15.689H65.2641V14.9942C64.5979 15.7058 63.6014 15.8963 62.3697 15.8963C59.9567 15.8963 57.9805 14.1314 57.9805 11.5651C57.9805 8.9989 59.9455 7.25073 62.4201 7.25073C63.5678 7.25073 64.5475 7.56451 65.1969 8.18645V7.44124H66.7925V15.689ZM65.3145 11.5651C65.3145 9.85058 64.1668 8.72435 62.4705 8.72435C60.7741 8.72435 59.6264 9.86739 59.6264 11.5651C59.6264 13.2629 60.7741 14.4059 62.4705 14.4059C64.1668 14.4115 65.3145 13.2853 65.3145 11.5651Z" fill="#090304"/>
<path d="M75.1439 15.4976C74.696 15.7385 74.097 15.8954 73.3468 15.8954C71.3313 15.8954 70.234 14.8756 70.234 12.9313V8.87469H68.4873V7.43469H70.234V5.00854H71.8296V7.43469H75.4239V8.87469H71.8296V12.9313C71.8296 13.9343 72.3279 14.405 73.3244 14.405C73.7219 14.405 74.125 14.3882 74.6401 14.164L75.2895 15.4303L75.1439 15.4976Z" fill="#090304"/>
<path d="M76.6445 11.5651C76.6445 9.03812 78.576 7.25073 81.1681 7.25073C82.4502 7.25073 83.6651 7.71579 84.544 8.58427L83.4131 9.69369C82.8981 9.10536 82.0807 8.72435 81.1681 8.72435C79.455 8.72435 78.2905 9.86739 78.2905 11.5651C78.2905 13.2461 79.4382 14.4059 81.1849 14.4059C82.0359 14.4059 82.8309 14.0921 83.4971 13.403L84.5944 14.5124C83.6819 15.3977 82.5006 15.8963 81.1681 15.8963C78.5592 15.9019 76.6445 14.1145 76.6445 11.5651Z" fill="#090304"/>
<path d="M94.8116 10.652V15.6948H93.216V10.7921C93.216 9.49215 92.3987 8.73012 91.055 8.73012C89.8401 8.73012 88.5917 9.47533 88.5917 10.8761V15.6948H86.9961V3.49121H88.5917V8.06335C89.2243 7.4246 90.1537 7.2509 91.2846 7.2509C93.3112 7.2509 94.8116 8.59004 94.8116 10.652Z" fill="#090304"/>
<path d="M107.189 12.1592C107.189 13.9802 105.773 15.6948 103.444 15.6948H98.002V4.16919H103.444C105.773 4.16919 107.189 5.4523 107.189 7.30693C107.189 8.34911 106.758 9.24561 106.142 9.68265C106.556 9.81713 107.189 11.1339 107.189 12.1592ZM99.7207 8.91503H103.561C104.776 8.91503 105.426 8.36032 105.426 7.30133C105.426 6.31518 104.726 5.74366 103.444 5.74366H99.7151V8.91503H99.7207ZM103.444 14.1147C104.726 14.1147 105.426 13.1454 105.426 12.1592C105.426 11.0834 104.776 10.5287 103.561 10.5287H99.7207V14.1147H103.444Z" fill="#090304"/>
<path d="M114.86 8.20887L114.625 8.95408L114.457 8.88684C114.188 8.78038 113.875 8.72995 113.511 8.72995C112.296 8.72995 111.048 9.47517 111.048 10.8759V15.6946H109.452V7.44124H111.048V8.06318C111.68 7.42443 112.61 7.25073 113.741 7.25073C114.155 7.25073 114.575 7.30116 115.073 7.45805L115.023 7.63174L114.86 8.20887Z" fill="#090304"/>
<path d="M116.954 5.41849C116.954 4.84697 117.419 4.41553 118.018 4.41553C118.583 4.41553 119.065 4.84697 119.065 5.41849C119.065 5.97319 118.583 6.42144 118.018 6.42144C117.419 6.42144 116.954 5.97319 116.954 5.41849ZM117.206 15.689V7.44121H118.802V15.689H117.206Z" fill="#090304"/>
<path d="M128.532 8.29308V3.49121H130.127V15.6892H128.599V14.6694C127.95 15.4483 126.92 15.9021 125.688 15.9021C123.292 15.9021 121.315 14.1371 121.315 11.5709C121.315 9.00467 123.281 7.2565 125.755 7.2565C126.903 7.2509 127.882 7.63191 128.532 8.29308ZM128.666 11.5653C128.666 9.85074 127.502 8.72452 125.822 8.72452C124.109 8.72452 122.978 9.86755 122.978 11.5653C122.978 13.263 124.109 14.4061 125.822 14.4061C127.502 14.4117 128.666 13.2855 128.666 11.5653Z" fill="#090304"/>
<path d="M139.661 8.72507C139.947 9.17332 140.109 9.72803 140.109 10.2995C140.109 12.1542 138.631 13.3645 136.464 13.3645C136.017 13.3645 135.586 13.314 135.182 13.2076H135.065C134.55 13.2076 134.264 13.4149 134.264 13.8127C134.264 14.2105 134.611 14.3842 135.143 14.3842H136.621C139.6 14.3842 140.982 15.2135 140.982 16.9841C140.982 18.7659 139.616 19.8416 136.672 19.8416C133.71 19.8416 132.182 18.609 132.182 17.0513C132.182 16.1828 132.562 15.6281 133.279 15.2303C132.881 14.8661 132.646 14.401 132.646 13.8295C132.646 13.1179 133.027 12.5968 133.643 12.3391C133.111 11.818 132.825 11.1456 132.825 10.2939C132.825 8.48974 134.32 7.27947 136.453 7.24585C136.985 7.24585 137.467 7.31309 137.887 7.43636H141.05L140.619 8.71947H139.661V8.72507ZM136.638 15.8634H134.807C134.124 16.1212 133.844 16.5022 133.844 17.0065C133.844 17.7685 134.595 18.3736 136.688 18.3736C138.62 18.3736 139.381 17.8694 139.381 16.9897C139.381 16.1604 138.665 15.8634 136.638 15.8634ZM138.48 10.3052C138.48 9.33581 137.747 8.69145 136.464 8.69145C135.182 8.69145 134.432 9.3134 134.432 10.3052C134.432 11.3249 135.166 11.9188 136.464 11.9188C137.752 11.9132 138.48 11.3249 138.48 10.3052Z" fill="#090304"/>
<path d="M150.679 12.2095H144.006C144.241 13.5766 145.321 14.4451 146.833 14.4451C147.779 14.4451 148.664 14.0809 149.397 13.403L150.394 14.5124C149.464 15.3808 148.199 15.8963 146.85 15.8963C144.224 15.8963 142.326 14.1482 142.326 11.5315C142.326 9.00451 144.123 7.25073 146.732 7.25073C149.459 7.25073 150.825 9.12217 150.825 11.0272C150.825 11.257 150.774 11.7388 150.679 12.2095ZM144.006 10.7695H149.145C149.078 9.62645 148.233 8.69073 146.715 8.69073C145.271 8.69073 144.258 9.46957 144.006 10.7695Z" fill="#090304"/>
<path d="M57.2256 24.8206C57.1136 24.7254 57.0576 24.6021 57.0576 24.462C57.0576 24.322 57.1136 24.1987 57.2256 24.1034C57.3375 24.0082 57.4719 23.9578 57.6231 23.9578C57.7742 23.9578 57.9142 24.0082 58.0206 24.1034C58.1325 24.1987 58.1885 24.322 58.1885 24.462C58.1885 24.6021 58.1325 24.7254 58.0206 24.8206C57.9086 24.9159 57.7742 24.9663 57.6231 24.9663C57.4719 24.9663 57.3375 24.9159 57.2256 24.8206ZM57.22 30.6143V25.8012H58.0206V30.6143H57.22Z" fill="#090304"/>
<path d="M68.1601 25.9253C68.4848 26.0878 68.7367 26.3175 68.9215 26.6144C69.1062 26.9114 69.1958 27.2588 69.1958 27.6454V30.6151H68.3952V27.7295C68.3952 27.3036 68.2664 26.973 68.0033 26.7321C67.7458 26.4912 67.3819 26.3735 66.9172 26.3735C66.6317 26.3735 66.3629 26.4295 66.1054 26.5416C65.8479 26.6537 65.6407 26.8162 65.484 27.0291C65.3272 27.242 65.2488 27.4941 65.2488 27.7911V30.6151H64.4482V25.802H65.2488V26.3511C65.4224 26.1102 65.6631 25.9365 65.9654 25.8356C66.2678 25.7348 66.6373 25.6843 67.0683 25.6843C67.4714 25.6843 67.8353 25.7684 68.1601 25.9253Z" fill="#090304"/>
<path d="M76.4061 30.4134C75.9863 30.1948 75.6615 29.8979 75.4208 29.5113C75.1801 29.1246 75.0625 28.6932 75.0625 28.2057C75.0625 27.7183 75.1801 27.2868 75.4208 26.9058C75.6615 26.5248 75.9918 26.2278 76.4117 26.0093C76.8316 25.7964 77.3019 25.6843 77.8226 25.6843C78.2201 25.6843 78.5896 25.746 78.9367 25.8636C79.2782 25.9869 79.5749 26.1606 79.8156 26.3903L79.2614 26.917C79.1046 26.7489 78.9031 26.6144 78.6567 26.5192C78.4048 26.4239 78.1305 26.3735 77.8282 26.3735C77.4531 26.3735 77.1172 26.452 76.8204 26.6032C76.5293 26.7545 76.2998 26.973 76.1374 27.2532C75.9751 27.5334 75.8967 27.8527 75.8967 28.2113C75.8967 28.5699 75.9751 28.8893 76.1374 29.1695C76.2998 29.4496 76.5293 29.6681 76.8204 29.825C77.1116 29.9819 77.4531 30.0604 77.8394 30.0604C78.4384 30.0604 78.9311 29.8699 79.3062 29.4832L79.8548 30.0099C79.5973 30.2453 79.3006 30.4302 78.9535 30.559C78.612 30.6879 78.2368 30.7495 77.8282 30.7495C77.2963 30.7383 76.826 30.6319 76.4061 30.4134Z" fill="#090304"/>
<path d="M86.7362 30.4972C86.4171 30.3347 86.1651 30.1049 85.9804 29.808C85.7956 29.511 85.7061 29.1692 85.7061 28.777V25.8074H86.5066V28.693C86.5066 29.1244 86.6354 29.4606 86.8985 29.6959C87.1561 29.9313 87.52 30.0489 87.9846 30.0489C88.2702 30.0489 88.5389 29.9929 88.7964 29.8808C89.054 29.7688 89.2611 29.6063 89.4179 29.3878C89.5746 29.1692 89.653 28.9171 89.653 28.6257V25.8018H90.4424V30.6148H89.653V30.0657C89.4794 30.3067 89.2387 30.4804 88.9364 30.5812C88.6341 30.6821 88.2646 30.7325 87.8335 30.7325C87.4192 30.7381 87.0553 30.6597 86.7362 30.4972Z" fill="#090304"/>
<path d="M100.699 26.0036C101.113 26.2166 101.443 26.5135 101.679 26.9001C101.919 27.2868 102.037 27.7182 102.037 28.2057C102.037 28.6931 101.919 29.1302 101.679 29.5112C101.438 29.8978 101.113 30.1948 100.704 30.4133C100.296 30.6262 99.8423 30.7383 99.3608 30.7383C98.9297 30.7383 98.5434 30.6542 98.2075 30.4861C97.8716 30.318 97.6029 30.0827 97.4069 29.7857V30.615H96.6455V23.3982H97.4461V26.4855C97.6476 26.2278 97.9108 26.0317 98.2299 25.8916C98.549 25.7515 98.9129 25.6843 99.316 25.6843C99.8255 25.6843 100.285 25.7907 100.699 26.0036ZM100.671 29.5448C101.024 29.2086 101.203 28.7604 101.203 28.2057C101.203 27.6566 101.024 27.2139 100.671 26.8777C100.318 26.5415 99.8591 26.3734 99.288 26.3734C98.7114 26.3734 98.2523 26.5415 97.8996 26.8721C97.5469 27.2083 97.3733 27.651 97.3733 28.2057C97.3733 28.7604 97.5469 29.203 97.8996 29.5448C98.2523 29.881 98.7114 30.0491 99.288 30.0491C99.8591 30.0491 100.318 29.881 100.671 29.5448Z" fill="#090304"/>
<path d="M113.004 30.6151H112.243V29.9987C112.063 30.2733 111.811 30.4694 111.487 30.5758C111.168 30.6823 110.77 30.7383 110.3 30.7383C109.807 30.7383 109.359 30.6319 108.951 30.4134C108.542 30.1948 108.217 29.8979 107.976 29.5113C107.736 29.1246 107.618 28.6932 107.618 28.2057C107.618 27.7183 107.736 27.2868 107.976 26.9002C108.217 26.5136 108.542 26.2166 108.951 26.0037C109.359 25.7908 109.818 25.6843 110.328 25.6843C111.19 25.6843 111.817 25.9309 112.198 26.4239V25.8076H112.998V30.6151H113.004ZM111.744 29.5449C112.097 29.2087 112.271 28.7604 112.271 28.2057C112.271 27.651 112.097 27.2084 111.744 26.8722C111.392 26.536 110.932 26.3735 110.356 26.3735C109.79 26.3735 109.326 26.5416 108.973 26.8778C108.62 27.214 108.441 27.6566 108.441 28.2057C108.441 28.7604 108.62 29.2031 108.973 29.5449C109.326 29.8811 109.785 30.0492 110.356 30.0492C110.932 30.0492 111.397 29.8811 111.744 29.5449Z" fill="#090304"/>
<path d="M121.463 30.7381C120.858 30.7381 120.393 30.5924 120.074 30.3066C119.755 30.0209 119.598 29.6006 119.598 29.0459V26.4629H118.484V25.8017H119.598V24.3225H120.399V25.8017H122.678V26.4629H120.399V29.0459C120.399 29.3821 120.483 29.6343 120.657 29.8024C120.83 29.9704 121.093 30.0489 121.452 30.0489C121.614 30.0489 121.754 30.0377 121.877 30.0209C122 30.0041 122.118 29.9704 122.241 29.9256L122.554 30.514C122.275 30.6652 121.905 30.7381 121.463 30.7381Z" fill="#090304"/>
<path d="M129.205 30.419C128.785 30.206 128.46 29.9091 128.225 29.5225C127.99 29.1358 127.872 28.6988 127.872 28.2057C127.872 27.7183 127.99 27.2868 128.225 26.9002C128.46 26.5136 128.79 26.2166 129.205 26.0037C129.624 25.7908 130.095 25.6843 130.621 25.6843C131.147 25.6843 131.623 25.7908 132.043 26.0037C132.463 26.2166 132.793 26.5136 133.034 26.9002C133.275 27.2868 133.392 27.7183 133.392 28.2057C133.392 28.6988 133.275 29.1358 133.034 29.5225C132.793 29.9091 132.463 30.206 132.043 30.419C131.623 30.6319 131.147 30.7383 130.621 30.7383C130.095 30.7383 129.619 30.6319 129.205 30.419ZM132.015 29.5449C132.373 29.2087 132.552 28.7604 132.552 28.2057C132.552 27.6566 132.373 27.214 132.015 26.8778C131.657 26.5416 131.192 26.3735 130.621 26.3735C130.044 26.3735 129.585 26.5416 129.227 26.8778C128.874 27.214 128.695 27.6566 128.695 28.2057C128.695 28.7604 128.874 29.2031 129.227 29.5449C129.58 29.8811 130.044 30.0492 130.621 30.0492C131.192 30.0492 131.657 29.8811 132.015 29.5449Z" fill="#090304"/>
<path d="M142.626 25.774L142.402 26.4744C142.229 26.4071 142.016 26.3735 141.764 26.3735C141.478 26.3735 141.21 26.4295 140.952 26.5416C140.695 26.6537 140.487 26.8162 140.331 27.0291C140.174 27.242 140.096 27.4941 140.096 27.7911V30.6151H139.295V25.802H140.096V26.3511C140.269 26.1102 140.51 25.9365 140.812 25.8356C141.114 25.7348 141.484 25.6843 141.915 25.6843C142.201 25.6843 142.436 25.7123 142.626 25.774Z" fill="#090304"/>
</svg>
